<svg xmlns="http://www.w3.org/2000/svg" width="234" height="36" fill="none" viewBox="0 0 234 36"><path fill="#fff" d="M18.664 28.263c.137-.38 2.333-7.714 2.333-7.714z"/><path fill="#8b7be5" d="M27.902 8.547a7.453 7.453 0 0 0-7.454-7.454 7.453 7.453 0 0 0-7.453 7.454h-.023a7.5 7.5 0 0 0 .325 2.154l4.95 16.06c.445-1.46 1.192-3.95 1.785-5.936-.574-1.857-3.435-11.14-3.435-11.142-.842-2.73 1.463-5.477 4.29-5.18q.027 0 .054.005.058.008.117.014c.814.118 1.58.498 2.168 1.074 1.06 1.04 1.49 2.64 1.063 4.067l-3.6 11.9c-.582 1.942-1.81 6.036-2.006 6.638l-.005.022s0 .006-.003.006l-.008.028a5.27 5.27 0 0 1-4.861 3.317h-.014a5.28 5.28 0 0 1-4.68-2.892c0-.006-.005-.009-.005-.011 0-.006-.006-.012-.006-.014a6 6 0 0 1-.377-.94l-5.026-16.37A5.25 5.25 0 0 1 4.5 6.634 5.26 5.26 0 0 1 8.769 4.48h4.463a8.34 8.34 0 0 1 3.745-3.454H8.77a8.68 8.68 0 0 0-7.05 3.555 8.69 8.69 0 0 0-1.325 7.784l5.017 16.37a8.9 8.9 0 0 0 2.006 3.482c1.597 1.703 3.845 2.814 6.363 2.814h.022c2.492-.006 4.914-1.164 6.556-3.049.307-.383 1.34-1.76 1.94-3.736l4.048-13.462c.565-1.868 1.382-3.728 1.541-5.694q.02-.27.022-.54h-.016z"/><path fill="#8b7be5" d="M41.03 8.753c-.132-1.51-.719-2.957-1.625-4.173a8.5 8.5 0 0 0-3.384-2.716c-1.894-.828-3.983-.937-6.022-.89-1.032.023-5.048-.041-6.198-.002a8.35 8.35 0 0 1 3.871 3.521c2.397.168 4.948-.47 7.107.573 1.577.761 2.682 2.408 2.816 4.154.098 1.278-.282 2.542-.66 3.767-1.37 4.453-2.74 8.883-4.114 13.336-.372 1.21-.763 2.455-1.566 3.437-1.057 1.292-2.789 1.977-4.45 1.818a5.49 5.49 0 0 1-3.955-2.333c-.635 1.628-1.345 2.657-1.773 3.18 1.955 1.942 4.732 2.907 7.468 2.54 1.597-.213 3.14-.87 4.349-1.938 2.053-1.815 2.94-4.576 3.736-7.197 1.122-3.683 2.246-7.341 3.368-11.025.601-1.972 1.208-4.002 1.03-6.052z"/><path fill="#321656" d="M67.982.959v10.615a8.7 8.7 0 0 0-2.263-1.859c-1.493-.847-3.242-1.274-5.199-1.274-1.766 0-3.396.332-4.849.99a10.95 10.95 0 0 0-3.734 2.744c-1.02 1.157-1.822 2.529-2.384 4.077-.559 1.543-.844 3.215-.844 4.967v.925c0 1.783.293 3.466.87 4.994a12.4 12.4 0 0 0 2.475 4.058 11.3 11.3 0 0 0 3.821 2.717c1.465.64 3.088.967 4.821.967 1.954 0 3.728-.428 5.277-1.272 1.3-.707 2.4-1.727 3.284-3.035v4.307H75.1V.96zm-.668 16.372c.56.867.844 1.968.844 3.27v1.761c0 1.31-.282 2.465-.835 3.424-.55.955-1.294 1.69-2.203 2.185-.916.5-1.948.752-3.06.752-1.19 0-2.267-.285-3.195-.85-.927-.564-1.674-1.38-2.213-2.42-.548-1.05-.825-2.314-.825-3.75 0-1.437.272-2.712.805-3.78.529-1.053 1.267-1.88 2.194-2.459.928-.578 2.016-.869 3.234-.869a6.54 6.54 0 0 1 3.027.715 5.75 5.75 0 0 1 2.227 2.027zm28.512-2.206V9.633h-7.362l.014-6.733h-6.724l-.014 6.733h-3.815v5.492h3.804l-.02 9.927c0 2.387.375 4.324 1.112 5.752a6.5 6.5 0 0 0 3.45 3.139c1.475.592 3.367.894 5.62.894h3.932v-6.238h-4.242c-1.046 0-1.814-.26-2.351-.8-.537-.536-.8-1.305-.8-2.35l.02-10.324zm7.065 11.798a3.936 3.936 0 0 0-3.932 3.932v.176a3.936 3.936 0 0 0 3.932 3.933 3.936 3.936 0 0 0 3.932-3.933v-.176a3.936 3.936 0 0 0-3.932-3.932m19.669 8.119q-2.553 0-4.642-.947a10.7 10.7 0 0 1-3.608-2.641 12.1 12.1 0 0 1-2.331-3.871q-.814-2.178-.814-4.642v-.615q0-2.377.791-4.553a12.2 12.2 0 0 1 2.267-3.871 10.8 10.8 0 0 1 3.563-2.683q2.088-.99 4.687-.99 2.947 0 5.193 1.278 2.244 1.277 3.608 3.675 1.363 2.399 1.451 5.875l-1.451-2.728V.96h3.301v33.334h-2.641v-10.34h1.056q-.087 3.651-1.517 6.137-1.43 2.487-3.74 3.717-2.31 1.233-5.17 1.233zm.442-2.904q2.374 0 4.29-1.056 1.912-1.056 3.013-3.013 1.1-1.958 1.101-4.51v-2.114q0-2.465-1.101-4.335a7.8 7.8 0 0 0-3.013-2.926q-1.916-1.056-4.335-1.056-2.595.001-4.511 1.255-1.914 1.253-2.949 3.41c-.69 1.436-1.034 3.052-1.034 4.84 0 1.789.352 3.491 1.057 4.928q1.056 2.156 2.993 3.364 1.936 1.211 4.489 1.21zm27.289 2.855q-2.993-.002-5.193-1.035-2.2-1.031-3.608-2.772a11.8 11.8 0 0 1-2.091-3.893 14.6 14.6 0 0 1-.682-4.444v-.615q-.001-2.244.682-4.4a11.5 11.5 0 0 1 2.091-3.87q1.407-1.715 3.541-2.75 2.132-1.033 4.994-1.034 3.652 0 6.093 1.626 2.443 1.627 3.675 4.16 1.233 2.53 1.233 5.432v1.716h-20.814v-2.551h18.525l-.836 1.277q0-2.595-.903-4.553-.901-1.956-2.641-3.08-1.74-1.122-4.335-1.12-2.727-.001-4.533 1.277t-2.705 3.387q-.902 2.113-.903 4.796c0 1.789.299 3.365.903 4.818q.901 2.18 2.772 3.455 1.87 1.278 4.729 1.277 3.036 0 4.927-1.386 1.892-1.388 2.331-3.278h3.08q-.441 2.331-1.847 4.027-1.409 1.693-3.564 2.619-2.155.923-4.927.925zm15.332-.106v-23.92h2.641v9.768h-.528q-.001-3.256.967-5.587.967-2.33 2.904-3.608 1.935-1.276 4.882-1.277h.132q4.397 0 6.556 2.75 2.155 2.75 2.155 7.722v14.152h-3.256V20.031q-.002-3.036-1.671-4.886-1.672-1.848-4.665-1.847c-1.995 0-3.703.637-4.95 1.915q-1.869 1.916-1.869 5.039v14.635h-3.301zm21.962-22.2V10.18h15.752v2.507zm12.057 22.315q-2.419 0-4.181-.704-1.76-.705-2.728-2.398-.967-1.694-.967-4.553V1.012h3.17v26.819q0 2.025 1.101 3.102 1.1 1.078 3.124 1.079h4.182v2.993h-3.695zm14.96-.178q-2.463 0-4.357-.88-1.892-.88-2.926-2.552t-1.034-4.047c0-1.582.358-2.873 1.079-3.96q1.078-1.628 3.124-2.488 2.045-.859 4.95-.858h6.82v2.507h-7.041q-2.772 0-4.245 1.342-1.475 1.342-1.473 3.499c0 1.436.514 2.633 1.54 3.5q1.54 1.297 4.181 1.296a8.4 8.4 0 0 0 3.125-.595q1.496-.594 2.507-2.024t1.101-3.938l.967 1.364q-.175 2.595-1.233 4.335a6.75 6.75 0 0 1-2.859 2.619q-1.805.88-4.223.88zm7.876-.618v-6.995h-.528v-8.668q0-2.594-1.364-3.983-1.365-1.387-4.223-1.386-1.32 0-2.661.045-1.342.046-2.551.109-1.21.067-2.135.154v-2.904q.967-.089 1.981-.176 1.01-.089 2.091-.11 1.076-.02 2.09-.022 3.564 0 5.741.88 2.179.881 3.189 2.75c.673 1.247 1.011 2.9 1.011 4.95v15.356zm4.834-30.44V1.08H234v2.683h-6.688zm3.387 31.256V1.08H234v33.942z"/></svg>