<svg xmlns="http://www.w3.org/2000/svg" width="154" height="59" fill="none" viewBox="0 0 154 59"><g clip-path="url(#a)"><path fill="url(#b)" d="M99.032 23.177c-4.939 0-9.773 4.33-10.919 10.517-1.103-6.182-5.249-10.517-10.778-10.517-5.083 0-10.058 4.936-10.623 9.795a10.53 10.53 0 0 0 1.358 6.106c2.285 4.274 5.876 7.734 9.555 10.864 2.296 1.964 4.622 4.345 7.156 5.999a6.3 6.3 0 0 0 3.628 1.145c2.948-.107 4.84-2.677 6.912-4.381 2.43-1.995 4.835-4.071 7.079-6.244 3.207-3.134 7.006-7.123 7.374-11.785.43-5.424-5.099-11.5-10.743-11.5m-3.628 18.511-5.6 12.213c-.12.257-.311.475-.553.627a1.5 1.5 0 0 1-.81.233 1.3 1.3 0 0 1-.197 0 1.5 1.5 0 0 1-.844-.406c-.23-.22-.38-.508-.43-.82-3.447-21.61-10.39-23.223-10.463-23.233h.047a1.5 1.5 0 0 1-.987-.568 1.447 1.447 0 0 1 .29-2.055 1.5 1.5 0 0 1 1.106-.283q.161.017.316.066c1.71.417 8.058 3.155 11.778 20.934l3.628-7.923c.073-.186.184-.355.326-.497a1.5 1.5 0 0 1 1.093-.44 1.52 1.52 0 0 1 1.075.478 1.46 1.46 0 0 1 .386 1.096 1.45 1.45 0 0 1-.165.57zm.658-3.23c-.32 0-.632-.094-.898-.268a1.6 1.6 0 0 1-.595-.713 1.56 1.56 0 0 1 .35-1.73 1.64 1.64 0 0 1 1.762-.344c.295.12.548.324.726.585a1.57 1.57 0 0 1-.196 1.999c-.3.297-.707.466-1.133.47zM97.68 33.8a.8.8 0 0 1-.45-.133.8.8 0 0 1-.297-.357.78.78 0 0 1 .175-.865.81.81 0 0 1 .881-.172c.148.06.274.162.363.292a.784.784 0 0 1-.095.997.82.82 0 0 1-.561.238z"/><path fill="#57c2e0" d="M119.325 23.303c2.571-2.922 2.822-6.845.562-8.763-2.261-1.919-6.178-1.105-8.749 1.816s-2.822 6.845-.562 8.764c2.261 1.918 6.178 1.104 8.749-1.817m-12.736-11.68C107.755 6.141 105.261.991 101.02.122c-4.242-.87-8.625 2.87-9.79 8.353-1.166 5.483 1.328 10.632 5.57 11.501 4.241.87 8.624-2.87 9.789-8.353M65.878 25.136c2.26-1.918 2.009-5.841-.562-8.763s-6.488-3.735-8.748-1.817c-2.261 1.918-2.01 5.842.561 8.763s6.488 3.736 8.749 1.817m13.771-5.153c4.241-.87 6.735-6.019 5.57-11.501-1.166-5.483-5.55-9.223-9.79-8.353-4.242.869-6.736 6.018-5.57 11.5 1.165 5.484 5.548 9.223 9.79 8.354"/><path fill="#1d1d1b" d="M18.185 23.29a17.8 17.8 0 0 0-6.978 1.31 17.5 17.5 0 0 0-5.873 3.926 17.2 17.2 0 0 0-3.997 5.768 16.9 16.9 0 0 0-1.336 6.851 16.9 16.9 0 0 0 1.336 6.852 17.2 17.2 0 0 0 3.997 5.767 17.5 17.5 0 0 0 5.87 3.94 17.8 17.8 0 0 0 6.98 1.322 17.9 17.9 0 0 0 6.987-1.313 17.6 17.6 0 0 0 5.885-3.923 17.2 17.2 0 0 0 3.997-5.768 16.9 16.9 0 0 0 1.336-6.851 16.9 16.9 0 0 0-1.336-6.852 17.2 17.2 0 0 0-3.997-5.768 17.6 17.6 0 0 0-5.882-3.936 17.9 17.9 0 0 0-6.99-1.325m8.845 26.541a12.1 12.1 0 0 1-4.049 2.676 12.3 12.3 0 0 1-4.796.886 12.3 12.3 0 0 1-4.778-.891 12.1 12.1 0 0 1-4.032-2.67 12.2 12.2 0 0 1-3.653-8.687 12.2 12.2 0 0 1 3.653-8.686 12.05 12.05 0 0 1 4.027-2.69 12.2 12.2 0 0 1 4.783-.902c1.646-.026 3.28.28 4.801.897a12.1 12.1 0 0 1 4.044 2.695 12.2 12.2 0 0 1 3.653 8.686c0 3.256-1.313 6.38-3.653 8.686m29.009-5.513q3.913-2.854 4.467-8.594a2 2 0 0 0 0-.295 2.64 2.64 0 0 0-.72-1.847 2.7 2.7 0 0 0-.932-.685 2.7 2.7 0 0 0-1.141-.231h-.067a2.68 2.68 0 0 0-1.887.733 2.7 2.7 0 0 0-.932 1.76 7.45 7.45 0 0 1-2.505 4.829 7.72 7.72 0 0 1-5.164 1.908h-.876v-15.84a2.7 2.7 0 0 0-.213-1.059 2.8 2.8 0 0 0-.61-.898 2.8 2.8 0 0 0-.913-.6 2.9 2.9 0 0 0-1.078-.21h-.072a2.84 2.84 0 0 0-1.992.81 2.8 2.8 0 0 0-.61.898 2.7 2.7 0 0 0-.212 1.06V56.23c-.009.364.061.725.205 1.06s.358.636.63.884a2.72 2.72 0 0 0 1.979.85h.072c.37.002.736-.07 1.077-.212.34-.141.647-.35.903-.612a2.56 2.56 0 0 0 .834-1.945v-8.71h1.912a7.8 7.8 0 0 1 2.944.561 7.7 7.7 0 0 1 2.499 1.628 7.5 7.5 0 0 1 1.672 2.444c.389.915.589 1.896.59 2.887v1.165c-.01.364.06.727.205 1.062s.361.636.635.882c.252.268.557.481.897.627s.706.222 1.077.223h.073a2.73 2.73 0 0 0 1.979-.824c.274-.247.49-.547.635-.883s.215-.697.205-1.061V55.09c.01-2.305-.61-4.57-1.793-6.56q-1.725-2.976-3.773-4.213m78.919 2.117a2.66 2.66 0 0 0-1.688.469 2.58 2.58 0 0 0-1.011 1.408 7.5 7.5 0 0 1-2.773 3.659 7.63 7.63 0 0 1-4.513 1.44q-3.752 0-5.519-2.198 1.145-.51 7.727-3.45l8.586-3.796c.345-.142.656-.353.912-.62.256-.268.452-.585.575-.932a2.56 2.56 0 0 0-.093-2.127 13.2 13.2 0 0 0-3.51-4.552 13.5 13.5 0 0 0-5.142-2.663 13.6 13.6 0 0 0-5.807-.275 13.5 13.5 0 0 0-5.378 2.167 13.25 13.25 0 0 0-3.939 4.2 13 13 0 0 0-1.756 5.441c-.173 1.919.085 3.85.756 5.66a13.1 13.1 0 0 0 3.126 4.814 13.46 13.46 0 0 0 5.762 3.331c2.176.615 4.475.679 6.683.185a13.5 13.5 0 0 0 5.944-3.006 13.16 13.16 0 0 0 3.727-5.451 2.8 2.8 0 0 0 .187-.982 2.55 2.55 0 0 0-.518-1.527 2.7 2.7 0 0 0-1.01-.897 2.74 2.74 0 0 0-1.328-.298m-17.69-.59a7.4 7.4 0 0 1 .569-2.91 7.5 7.5 0 0 1 1.667-2.468 7.7 7.7 0 0 1 2.509-1.646 7.8 7.8 0 0 1 2.96-.569q3.586 0 5.306 2.036L117.267 46zm33.914-7.642a2.74 2.74 0 0 0 1.979-.824c.273-.246.489-.546.634-.88.145-.335.215-.696.206-1.059v-.046a2.66 2.66 0 0 0-.84-1.969 2.74 2.74 0 0 0-1.979-.824h-3.498v-6.615a2.75 2.75 0 0 0-.825-1.954 2.85 2.85 0 0 0-1.989-.814h-.072a2.86 2.86 0 0 0-1.991.819 2.75 2.75 0 0 0-.823 1.96v25.762a7.1 7.1 0 0 0 .557 2.753 7.2 7.2 0 0 0 1.59 2.332 7.3 7.3 0 0 0 2.38 1.555 7.4 7.4 0 0 0 2.805.54h1.861c.369.002.736-.07 1.076-.211.341-.142.648-.351.903-.614.273-.246.49-.547.635-.882a2.5 2.5 0 0 0 .204-1.062v-.045a2.68 2.68 0 0 0-.839-1.964 2.7 2.7 0 0 0-.903-.614 2.75 2.75 0 0 0-1.076-.211h-1.861a1.6 1.6 0 0 1-1.517-.97 1.5 1.5 0 0 1-.115-.607V38.202z"/></g><defs><radialGradient id="b" cx="0" cy="0" r="1" gradientTransform="matrix(38.7915 0 0 35.0444 87.269 56.24)" gradientUnits="userSpaceOnUse"><stop offset=".18" stop-color="#2b2d6c"/><stop offset=".22" stop-color="#2f3b77"/><stop offset=".34" stop-color="#396497"/><stop offset=".46" stop-color="#4286b2"/><stop offset=".59" stop-color="#48a0c7"/><stop offset=".72" stop-color="#4db2d5"/><stop offset=".85" stop-color="#50bdde"/><stop offset="1" stop-color="#51c1e1"/></radialGradient><clipPath id="a"><path fill="#fff" d="M0 0h154v59H0z"/></clipPath></defs></svg>